<svg width="24" height="24" viewBox="0 0 24 24" fill="none" xmlns="http://www.w3.org/2000/svg">
<path d="M7.814 21C7.814 21.414 7.478 21.75 7.064 21.75H5C3.483 21.75 2.25 20.517 2.25 19V17.035C2.25 16.621 2.586 16.285 3 16.285C3.414 16.285 3.75 16.621 3.75 17.035V19C3.75 19.689 4.311 20.25 5 20.25H7.064C7.478 20.25 7.814 20.586 7.814 21ZM21 16.24C20.586 16.24 20.25 16.576 20.25 16.99V19C20.25 19.689 19.689 20.25 19 20.25H17.099C16.685 20.25 16.349 20.586 16.349 21C16.349 21.414 16.685 21.75 17.099 21.75H19C20.517 21.75 21.75 20.516 21.75 19V16.99C21.75 16.576 21.414 16.24 21 16.24ZM19 2.25H16.901C16.487 2.25 16.151 2.586 16.151 3C16.151 3.414 16.487 3.75 16.901 3.75H19C19.689 3.75 20.25 4.311 20.25 5V6.866C20.25 7.28 20.586 7.616 21 7.616C21.414 7.616 21.75 7.28 21.75 6.866V5C21.75 3.484 20.517 2.25 19 2.25ZM7.064 2.25H5C3.483 2.25 2.25 3.483 2.25 5V7.089C2.25 7.503 2.586 7.839 3 7.839C3.414 7.839 3.75 7.503 3.75 7.089V5C3.75 4.311 4.311 3.75 5 3.75H7.064C7.478 3.75 7.814 3.414 7.814 3C7.814 2.586 7.478 2.25 7.064 2.25Z" fill="#2FAD1B"/>
<path d="M14.849 21C14.849 21.414 14.513 21.75 14.099 21.75H10.065C9.651 21.75 9.315 21.414 9.315 21C9.315 20.586 9.651 20.25 10.065 20.25H14.099C14.513 20.25 14.849 20.586 14.849 21ZM21 9.116C20.586 9.116 20.25 9.452 20.25 9.866V13.99C20.25 14.404 20.586 14.74 21 14.74C21.414 14.74 21.75 14.404 21.75 13.99V9.866C21.75 9.452 21.414 9.116 21 9.116ZM10.064 3.75H13.901C14.315 3.75 14.651 3.414 14.651 3C14.651 2.586 14.315 2.25 13.901 2.25H10.064C9.65 2.25 9.314 2.586 9.314 3C9.314 3.414 9.65 3.75 10.064 3.75ZM3 9.339C2.586 9.339 2.25 9.675 2.25 10.089V14.034C2.25 14.448 2.586 14.784 3 14.784C3.414 14.784 3.75 14.448 3.75 14.034V10.089C3.75 9.675 3.414 9.339 3 9.339Z" fill="#D0D0D0"/>
<rect x="7" y="7" width="10" height="10" fill="#2FAD1B" fill-opacity="0.5"/>
</svg>
