<svg width="130" height="37" viewBox="0 0 130 37" fill="none" xmlns="http://www.w3.org/2000/svg">
<path d="M0 0V36.597H20.3376H27.456H35.0645V36.5637V27.4976V0H0Z" fill="#007FFF"/>
<path d="M56.7435 29.6737C56.7435 29.7942 56.7061 29.9022 56.6355 29.9935C56.5607 30.0849 56.4403 30.1597 56.27 30.2219C56.0997 30.2842 55.8672 30.3299 55.5681 30.359C55.2691 30.3881 54.9036 30.4047 54.4676 30.4047C54.0315 30.4047 53.6453 30.3881 53.3462 30.359C53.0472 30.3299 52.8146 30.2842 52.6444 30.2219C52.4741 30.1597 52.3536 30.0849 52.2789 29.9935C52.2041 29.9022 52.1709 29.7983 52.1709 29.6737V20.4041C52.1709 19.615 52.1128 18.9962 51.9965 18.5476C51.8802 18.0991 51.7141 17.7129 51.494 17.3931C51.2738 17.0733 50.9914 16.8241 50.6467 16.6455C50.302 16.4669 49.895 16.3797 49.434 16.3797C48.8526 16.3797 48.2629 16.5915 47.669 17.0151C47.0751 17.4388 46.4563 18.0576 45.8125 18.8716V29.6696C45.8125 29.79 45.7752 29.898 45.7046 29.9894C45.6298 30.0807 45.5052 30.1555 45.3308 30.2178C45.1564 30.2801 44.9196 30.3258 44.6289 30.3549C44.3382 30.3839 43.9686 30.4005 43.52 30.4005C43.0715 30.4005 42.7019 30.3839 42.4112 30.3549C42.1205 30.3258 41.8879 30.2801 41.7093 30.2178C41.5349 30.1555 41.4103 30.0807 41.3355 29.9894C41.2608 29.898 41.2275 29.7942 41.2275 29.6696V5.72707C41.2275 5.60663 41.2649 5.49865 41.3355 5.39898C41.4103 5.30346 41.5307 5.22039 41.7093 5.15394C41.8837 5.08749 42.1205 5.03351 42.4112 5.00028C42.7019 4.9629 43.0715 4.94629 43.52 4.94629C43.9686 4.94629 44.3382 4.9629 44.6289 5.00028C44.9196 5.03766 45.1522 5.08749 45.3308 5.15394C45.5052 5.22039 45.6298 5.30346 45.7046 5.39898C45.7793 5.4945 45.8125 5.60663 45.8125 5.72707V14.7019C46.6016 13.9253 47.4073 13.3438 48.2255 12.9617C49.0436 12.5797 49.8992 12.3886 50.7838 12.3886C51.8885 12.3886 52.8188 12.5714 53.5788 12.9368C54.3388 13.3023 54.9493 13.8007 55.4186 14.4319C55.8838 15.0632 56.2243 15.8024 56.4278 16.6455C56.6355 17.4886 56.7393 18.5103 56.7393 19.7147V29.6737H56.7435Z" fill="#007FFF"/>
<path d="M75.0799 29.7277C75.0799 29.898 75.0176 30.0309 74.8972 30.1264C74.7768 30.2219 74.5857 30.2925 74.3241 30.3341C74.0624 30.3756 73.6762 30.3964 73.1695 30.3964C72.6213 30.3964 72.2268 30.3756 71.9776 30.3341C71.7284 30.2925 71.554 30.2219 71.4501 30.1264C71.3463 30.0309 71.2965 29.898 71.2965 29.7277V28.4361C70.6278 29.1504 69.8678 29.7111 69.0123 30.1098C68.1567 30.5085 67.2057 30.712 66.1633 30.712C65.2994 30.712 64.5103 30.5999 63.7877 30.3756C63.0651 30.1513 62.4421 29.8191 61.9105 29.3747C61.3831 28.9303 60.9719 28.3821 60.6812 27.7259C60.3905 27.0698 60.2451 26.3056 60.2451 25.4334C60.2451 24.4865 60.432 23.6642 60.8016 22.9665C61.1713 22.2688 61.7236 21.6915 62.4587 21.2347C63.1938 20.7778 64.1075 20.4414 65.1997 20.2255C66.292 20.0054 67.5587 19.8974 69.004 19.8974H70.5863V18.9131C70.5863 18.4023 70.5365 17.9579 70.4326 17.5758C70.3288 17.1937 70.1585 16.8739 69.9218 16.6206C69.6851 16.3673 69.3694 16.1762 68.9749 16.0558C68.5803 15.9353 68.0903 15.873 67.5089 15.873C66.7447 15.873 66.0594 15.9561 65.4614 16.1264C64.8592 16.2967 64.3276 16.4835 63.8666 16.6912C63.4056 16.8989 63.0194 17.0857 62.712 17.256C62.4006 17.4263 62.1514 17.5094 61.9562 17.5094C61.8233 17.5094 61.7028 17.4678 61.6032 17.3806C61.4993 17.2975 61.4163 17.173 61.3498 17.0151C61.2834 16.8573 61.2294 16.6621 61.1962 16.4337C61.1588 16.2053 61.1422 15.9478 61.1422 15.6695C61.1422 15.2916 61.1713 14.9967 61.2335 14.7766C61.2958 14.5565 61.408 14.3613 61.5783 14.1869C61.7485 14.0125 62.0434 13.8173 62.4712 13.6055C62.8948 13.3937 63.3932 13.1943 63.9663 13.0157C64.5352 12.833 65.1582 12.6835 65.831 12.5713C66.5038 12.4551 67.1974 12.3969 67.9159 12.3969C69.1909 12.3969 70.279 12.5215 71.1843 12.7707C72.0897 13.0199 72.8331 13.402 73.4145 13.9169C73.996 14.4319 74.4237 15.0964 74.6895 15.9104C74.9553 16.7244 75.0882 17.6879 75.0882 18.8051V29.7319L75.0799 29.7277ZM70.5821 22.7713H68.8337C68.0944 22.7713 67.4632 22.8253 66.9399 22.9333C66.4166 23.0413 65.993 23.2074 65.6649 23.4233C65.3368 23.6435 65.0959 23.9051 64.9464 24.2166C64.7927 24.5281 64.718 24.8811 64.718 25.2839C64.718 25.965 64.9339 26.4966 65.3659 26.887C65.7978 27.2774 66.3958 27.4684 67.16 27.4684C67.8037 27.4684 68.3935 27.3065 68.9334 26.9784C69.4733 26.6503 70.0215 26.1727 70.5821 25.5414V22.7755V22.7713Z" fill="#007FFF"/>
<path d="M88.3901 30.2926L86.4216 36.0446C86.3136 36.3478 86.0146 36.5679 85.5287 36.7008C85.0428 36.8337 84.3326 36.9001 83.3981 36.9001C82.9122 36.9001 82.526 36.8794 82.2311 36.8378C81.9404 36.7963 81.7203 36.7257 81.5749 36.6302C81.4296 36.5347 81.3507 36.4101 81.3382 36.2647C81.3257 36.1194 81.3631 35.9449 81.4462 35.7373L83.6141 30.2926C83.4563 30.2178 83.3151 30.1057 83.1863 29.9562C83.0576 29.8067 82.9662 29.6447 82.9039 29.4744L77.3139 14.5441C77.1561 14.1205 77.0771 13.7965 77.0771 13.5681C77.0771 13.3397 77.1519 13.1694 77.2973 13.0407C77.4426 12.9119 77.6877 12.8247 78.0365 12.7749C78.3812 12.7251 78.8422 12.7043 79.4112 12.7043C79.9345 12.7043 80.3456 12.7126 80.6488 12.7334C80.952 12.7541 81.1887 12.7957 81.359 12.8704C81.5292 12.941 81.658 13.0573 81.7411 13.2068C81.8241 13.3605 81.9113 13.5723 81.9944 13.8547L85.8194 24.7233H85.8734L89.3703 13.6346C89.4409 13.3189 89.5364 13.1113 89.6527 13.0075C89.769 12.9036 89.96 12.8289 90.2258 12.779C90.4916 12.7292 90.9609 12.7084 91.6295 12.7084C92.1528 12.7084 92.5848 12.7334 92.9295 12.779C93.2742 12.8289 93.5317 12.9202 93.6936 13.0531C93.8556 13.186 93.9387 13.3646 93.9387 13.5889C93.9387 13.8132 93.8888 14.079 93.7933 14.3821L88.386 30.2967L88.3901 30.2926Z" fill="#007FFF"/>
<path d="M109.915 29.7277C109.915 29.898 109.853 30.0309 109.733 30.1264C109.612 30.2219 109.421 30.2925 109.16 30.3341C108.898 30.3756 108.512 30.3964 108.005 30.3964C107.457 30.3964 107.062 30.3756 106.813 30.3341C106.564 30.2925 106.389 30.2219 106.286 30.1264C106.182 30.0309 106.132 29.898 106.132 29.7277V28.4361C105.463 29.1504 104.703 29.7111 103.848 30.1098C102.992 30.5085 102.041 30.712 100.999 30.712C100.135 30.712 99.3458 30.5999 98.6231 30.3756C97.9005 30.1513 97.2776 29.8191 96.746 29.3747C96.2185 28.9303 95.8074 28.3821 95.5166 27.7259C95.2259 27.0698 95.0806 26.3056 95.0806 25.4334C95.0806 24.4865 95.2675 23.6642 95.6371 22.9665C96.0067 22.2688 96.5591 21.6915 97.2942 21.2347C98.0293 20.7778 98.9429 20.4414 100.035 20.2255C101.127 20.0054 102.394 19.8974 103.839 19.8974H105.422V18.9131C105.422 18.4023 105.372 17.9579 105.268 17.5758C105.164 17.1937 104.994 16.8739 104.757 16.6206C104.521 16.3673 104.205 16.1762 103.81 16.0558C103.416 15.9353 102.926 15.873 102.344 15.873C101.58 15.873 100.895 15.9561 100.297 16.1264C99.6946 16.2967 99.163 16.4835 98.7021 16.6912C98.2411 16.8989 97.8548 17.0857 97.5475 17.256C97.2402 17.4263 96.9868 17.5094 96.7916 17.5094C96.6587 17.5094 96.5383 17.4678 96.4345 17.3806C96.3306 17.2975 96.2476 17.173 96.1811 17.0151C96.1147 16.8573 96.0607 16.6621 96.0275 16.4337C95.9901 16.2053 95.9735 15.9478 95.9735 15.6695C95.9735 15.2916 96.0025 14.9967 96.0648 14.7766C96.1271 14.5565 96.2393 14.3613 96.4096 14.1869C96.5798 14.0125 96.8747 13.8173 97.3025 13.6055C97.7261 13.3937 98.2245 13.1943 98.7934 13.0157C99.3624 12.8371 99.9854 12.6835 100.658 12.5713C101.331 12.4551 102.025 12.3969 102.743 12.3969C104.018 12.3969 105.106 12.5215 106.011 12.7707C106.917 13.0199 107.66 13.402 108.242 13.9169C108.823 14.4319 109.251 15.0964 109.517 15.9104C109.782 16.7244 109.915 17.6879 109.915 18.8051V29.7319V29.7277ZM105.418 22.7713H103.669C102.93 22.7713 102.299 22.8253 101.775 22.9333C101.252 23.0413 100.828 23.2074 100.5 23.4233C100.172 23.6393 99.9314 23.9051 99.7819 24.2166C99.6323 24.5281 99.5534 24.8811 99.5534 25.2839C99.5534 25.965 99.7694 26.4966 100.201 26.887C100.633 27.2774 101.231 27.4684 101.995 27.4684C102.639 27.4684 103.229 27.3065 103.769 26.9784C104.309 26.6503 104.857 26.1727 105.418 25.5414V22.7755V22.7713Z" fill="#007FFF"/>
<path d="M130 29.6738C130 29.7942 129.963 29.9022 129.892 29.9936C129.818 30.0849 129.697 30.1597 129.527 30.222C129.357 30.2843 129.124 30.33 128.825 30.3591C128.526 30.3881 128.16 30.4047 127.724 30.4047C127.288 30.4047 126.902 30.3881 126.603 30.3591C126.304 30.33 126.071 30.2843 125.901 30.222C125.731 30.1597 125.61 30.0849 125.536 29.9936C125.461 29.9022 125.428 29.7984 125.428 29.6738V20.4041C125.428 19.615 125.37 18.9962 125.253 18.5477C125.137 18.0992 124.971 17.7129 124.751 17.3931C124.531 17.0733 124.248 16.8242 123.904 16.6456C123.559 16.467 123.152 16.3798 122.691 16.3798C122.109 16.3798 121.52 16.5916 120.926 17.0152C120.332 17.4388 119.713 18.0576 119.069 18.8716V29.6696C119.069 29.7901 119.032 29.8981 118.961 29.9894C118.891 30.0808 118.762 30.1556 118.588 30.2179C118.413 30.2801 118.176 30.3258 117.886 30.3549C117.595 30.384 117.225 30.4006 116.777 30.4006C116.328 30.4006 115.959 30.384 115.668 30.3549C115.377 30.3258 115.145 30.2801 114.966 30.2179C114.792 30.1556 114.667 30.0808 114.592 29.9894C114.522 29.8981 114.484 29.7942 114.484 29.6696V13.4269C114.484 13.3065 114.513 13.1985 114.576 13.1072C114.638 13.0158 114.746 12.941 114.904 12.8787C115.062 12.8164 115.265 12.7708 115.514 12.7417C115.764 12.7126 116.075 12.696 116.453 12.696C116.831 12.696 117.163 12.7126 117.416 12.7417C117.67 12.7708 117.869 12.8164 118.006 12.8787C118.143 12.941 118.247 13.0158 118.305 13.1072C118.368 13.1985 118.397 13.3065 118.397 13.4269V15.3041C119.294 14.3323 120.207 13.6055 121.138 13.1196C122.068 12.6337 123.036 12.3928 124.041 12.3928C125.145 12.3928 126.076 12.5756 126.836 12.941C127.596 13.3065 128.206 13.8007 128.675 14.4237C129.141 15.0508 129.481 15.7817 129.685 16.6165C129.892 17.4554 129.996 18.4605 129.996 19.64V29.6738H130Z" fill="#007FFF"/>
<path d="M16.1847 20.4124C16.3135 20.2712 16.4381 20.1341 16.5585 19.997C16.6872 19.8517 16.8118 19.7022 16.9406 19.5568C17.1856 19.2744 17.4348 18.992 17.684 18.7096C17.8543 18.5144 18.0287 18.3234 18.199 18.1323C18.4482 17.8499 18.6973 17.5633 18.9507 17.2768C19.1293 17.0733 19.312 16.8739 19.4947 16.6704C19.7273 16.4046 19.9599 16.1347 20.1924 15.8689C20.371 15.6695 20.5455 15.4619 20.7282 15.2708C20.832 15.1629 20.9525 15.0632 21.0771 14.9843C21.239 14.8805 21.4176 14.8929 21.6003 14.9386C21.8288 14.9967 21.9741 15.1712 22.1444 15.3124C22.2856 15.4328 22.4143 15.5616 22.4974 15.7318C22.5722 15.8813 22.5639 16.0309 22.5431 16.1804C22.5182 16.3423 22.4268 16.4835 22.3147 16.6081C22.024 16.9321 21.7332 17.256 21.4467 17.5841C21.131 17.9413 20.8154 18.2984 20.4998 18.6556C20.2381 18.9505 19.9806 19.2453 19.719 19.5402C19.4574 19.8351 19.1999 20.1299 18.9382 20.4248C18.6766 20.7197 18.4191 21.0146 18.1574 21.3094C17.8958 21.6043 17.6383 21.8992 17.3767 22.194C17.1565 22.4474 16.9447 22.7132 16.7122 22.954C16.5087 23.1658 16.2263 23.2074 15.9895 23.0039C15.6241 22.6882 15.2627 22.3643 14.9014 22.0445C14.6066 21.7829 14.3117 21.5254 14.0168 21.2637C13.7219 21.0021 13.4271 20.7446 13.1322 20.483C13.0076 20.3708 12.8789 20.2628 12.7709 20.1383C12.5923 19.9348 12.5757 19.698 12.6463 19.4405C12.7044 19.2287 12.8706 19.0958 12.9993 18.9339C13.0616 18.8549 13.1322 18.7802 13.207 18.7137C13.4935 18.4729 13.805 18.4521 14.1289 18.6224C14.2037 18.6639 14.266 18.7262 14.3325 18.7843C14.6024 19.0211 14.864 19.262 15.134 19.5028C15.4787 19.806 15.8276 20.105 16.1806 20.4165L16.1847 20.4124Z" fill="white"/>
<path d="M29.4243 30.712L23.4813 24.9185H11.5869V11.6078H23.4813V19.5111H29.4243V5.88489H5.63965V30.712H21.7038L27.4807 36.5969H35.0642L29.4243 30.712Z" fill="white"/>
</svg>
